# xmcd
#
# Track frame offsets:
#	150
#	21063
#	38555
#	63148
#	80445
#	96643
#	113818
#	144180
#	169300
#	194203
#
# Disc length: 2895 seconds
#
# Revision: 2
# Processed by: cddbd v1.5.2PL0 Copyright (c) Steve Scherf et al.
# Submitted via: EZCDAudioConverter 8.0.2.1
#
DISCID=840b4d0a
DTITLE=Various Artist - 10 Tiếng hát Hàng Đầu. Trở Về Bến Mơ
DYEAR=1992
DGENRE=Contemporary Pop
TTITLE0=Elvis Phương - Người viết nhạc buồn
TTITLE1=Khánh Ly - CHiến sĩ vô danh
TTITLE2=Tuấn Vũ - Ngày trở về
TTITLE3=Kiều Nga - Trở Về Bến Mơ
TTITLE4=Hương Lan, Vũ Khanh - Ta hôn nhau trong công viên
TTITLE5=Linda Trang Đài - Viễn du
TTITLE6=Don Hồ - Ướt mi
TTITLE7=Hằng Nga - Tạ tình
TTITLE8=Ngọc Lan - Nghe những tàn phai
TTITLE9=Thái Châu - Bao giờ biết tương tư
EXTD=
EXTT0=
EXTT1=
EXTT2=
EXTT3=
EXTT4=
EXTT5=
EXTT6=
EXTT7=
EXTT8=
EXTT9=
PLAYORDER=
